# xmcd
#
# Track frame offsets: 
#        150
#        15273
#        25831
#        34751
#        45039
#        63303
#        76351
#        89542
#        106507
#        120985
#        130571
#        145731
#
# Disc length: 2199 seconds
#
# Revision: 2
# Processed by: cddbd v1.5.2PL0 Copyright (c) Steve Scherf et al.
# Submitted via: ExactAudioCopy v0.95b4
#
DISCID=7c08950c
DTITLE=Gail Davies - Anthology
DYEAR=1998
DGENRE=Country
TTITLE0=Someone Is Looking For Someone Like You
TTITLE1=I'll Be There
TTITLE2=Blue Heartache
TTITLE3=It's A Lovely, Lovely World
TTITLE4=Grandma's Song
TTITLE5=Bucket To The South
TTITLE6=I'm Hungry, I'm Tired
TTITLE7=Round The Clock Loving
TTITLE8=It's You Alone
TTITLE9=Singing The Blues
TTITLE10=Unwed Fathers
TTITLE11=Jagged Edge Of A Broken Heart
EXTD=
EXTT0=
EXTT1=
EXTT2=
EXTT3=
EXTT4=
EXTT5=
EXTT6=
EXTT7=
EXTT8=
EXTT9=
EXTT10=
EXTT11=
PLAYORDER=
